HIERARCHY
ROOT hip
{
	OFFSET 0.000000 103.560692 0.219151
	CHANNELS 6 Xposition Yposition Zposition Zrotation Xrotation Yrotation
	JOINT pelvis
	{
		OFFSET 0.000000 1.955040 1.591925
		CHANNELS 3 Zrotation Xrotation Yrotation
		JOINT lThigh
		{
			OFFSET 8.341582 -7.629402 -0.646910
			CHANNELS 3 Zrotation Xrotation Yrotation
			JOINT lShin
			{
				OFFSET 2.185763 -45.093132 -0.705710
				CHANNELS 3 Zrotation Xrotation Yrotation
				JOINT lFoot
				{
					OFFSET 0.730976 -46.379768 -2.264282
					CHANNELS 3 Zrotation Xrotation Yrotation
					JOINT lToe
					{
						OFFSET 2.797621 -4.200020 10.742415
						CHANNELS 3 Zrotation Xrotation Yrotation
						JOINT lBigToe
						{
							OFFSET -2.433708 -0.269072 1.841711
							CHANNELS 3 Zrotation Xrotation Yrotation
							End Site
							{
								OFFSET -10.527346 -33.657166 -1.340707
							}
						}
					}
				}
			}
		}
		JOINT rThigh
		{
			OFFSET -8.341582 -7.629402 -0.646910
			CHANNELS 3 Zrotation Xrotation Yrotation
			JOINT rShin
			{
				OFFSET -2.185763 -45.093132 -0.705710
				CHANNELS 3 Zrotation Xrotation Yrotation
				JOINT rFoot
				{
					OFFSET -0.730976 -46.379768 -2.264282
					CHANNELS 3 Zrotation Xrotation Yrotation
					JOINT rToe
					{
						OFFSET -2.797621 -4.200019 10.742415
						CHANNELS 3 Zrotation Xrotation Yrotation
						JOINT rBigToe
						{
							OFFSET 2.433708 -0.269072 1.841711
							CHANNELS 3 Zrotation Xrotation Yrotation
							End Site
							{
								OFFSET 0.000000 24.298409 -0.425647
							}
						}
					}
				}
			}
		}
	}
	JOINT abdomen
	{
		OFFSET 0.000000 1.841293 -3.551421
		CHANNELS 3 Zrotation Xrotation Yrotation
		JOINT abdomen2
		{
			OFFSET 0.000000 5.439911 3.419600
			CHANNELS 3 Zrotation Xrotation Yrotation
			JOINT chest
			{
				OFFSET 0.000000 14.715073 -2.918270
				CHANNELS 3 Zrotation Xrotation Yrotation
				JOINT neck
				{
					OFFSET 0.000000 26.294655 -1.248052
					CHANNELS 3 Zrotation Xrotation Yrotation
					JOINT head
					{
						OFFSET 0.000000 8.807068 1.063695
						CHANNELS 3 Zrotation Xrotation Yrotation
						JOINT rEye
						{
							OFFSET -3.030866 6.632080 7.702687
							CHANNELS 3 Zrotation Xrotation Yrotation
							End Site
							{
								OFFSET 2.969555 -11.022598 8.626689
							}
						}
						JOINT lEye
						{
							OFFSET 3.030866 6.632080 7.702687
							CHANNELS 3 Zrotation Xrotation Yrotation
							End Site
							{
								OFFSET 0.000000 -15.881760 10.104412
							}
						}
						JOINT upperJaw
						{
							OFFSET 0.000000 1.922699 2.891887
							CHANNELS 3 Zrotation Xrotation Yrotation
							End Site
							{
								OFFSET 0.000000 -19.386169 10.230839
							}
						}
						JOINT lowerJaw
						{
							OFFSET 0.000000 1.857620 2.686640
							CHANNELS 3 Zrotation Xrotation Yrotation
							JOINT tongueBase
							{
								OFFSET 0.000000 -3.019135 2.746916
								CHANNELS 3 Zrotation Xrotation Yrotation
								JOINT tongue01
								{
									OFFSET 0.000000 0.664124 0.223355
									CHANNELS 3 Zrotation Xrotation Yrotation
									JOINT tongue02
									{
										OFFSET 0.000000 0.339737 0.715627
										CHANNELS 3 Zrotation Xrotation Yrotation
										JOINT tongue03
										{
											OFFSET 0.000000 0.123444 0.730634
											CHANNELS 3 Zrotation Xrotation Yrotation
											JOINT tongue04
											{
												OFFSET 0.000000 0.017212 0.737415
												CHANNELS 3 Zrotation Xrotation Yrotation
												JOINT tongue05
												{
													OFFSET 0.000000 -0.021011 0.632440
													CHANNELS 3 Zrotation Xrotation Yrotation
													JOINT tongueTip
													{
														OFFSET 0.000000 -0.014404 0.601796
														CHANNELS 3 Zrotation Xrotation Yrotation
														End Site
														{
															OFFSET -14.139406 -2.625778 0.472826
														}
													}
												}
											}
										}
									}
								}
							}
						}
					}
				}
				JOINT rCollar
				{
					OFFSET -2.109295 21.452370 3.768136
					CHANNELS 3 Zrotation Xrotation Yrotation
					JOINT rShldr
					{
						OFFSET -11.491621 -2.568573 -4.940255
						CHANNELS 3 Zrotation Xrotation Yrotation
						JOINT rForeArm
						{
							OFFSET -28.789030 -0.213806 2.098380
							CHANNELS 3 Zrotation Xrotation Yrotation
							JOINT rHand
							{
								OFFSET -22.260895 -0.869583 10.391586
								CHANNELS 3 Zrotation Xrotation Yrotation
								JOINT rThumb1
								{
									OFFSET -0.628075 0.137405 2.362409
									CHANNELS 3 Zrotation Xrotation Yrotation
									JOINT rThumb2
									{
										OFFSET 0.085205 -0.600235 3.826079
										CHANNELS 3 Zrotation Xrotation Yrotation
										JOINT rThumb3
										{
											OFFSET -1.255478 -0.879211 2.439162
											CHANNELS 3 Zrotation Xrotation Yrotation
											End Site
											{
												OFFSET -2.963715 0.538574 4.059553
											}
										}
									}
								}
								JOINT rCarpal1
								{
									OFFSET -0.855530 1.026047 1.621985
									CHANNELS 3 Zrotation Xrotation Yrotation
									JOINT rIndex1
									{
										OFFSET -3.951324 0.390884 3.873290
										CHANNELS 3 Zrotation Xrotation Yrotation
										JOINT rIndex2
										{
											OFFSET -3.071884 -1.259598 2.506104
											CHANNELS 3 Zrotation Xrotation Yrotation
											JOINT rIndex3
											{
												OFFSET -1.394112 -1.446640 1.203302
												CHANNELS 3 Zrotation Xrotation Yrotation
												End Site
												{
													OFFSET -3.392448 -1.258026 0.533405
												}
											}
										}
									}
									JOINT rMid1
									{
										OFFSET -5.422974 0.107910 2.002650
										CHANNELS 3 Zrotation Xrotation Yrotation
										JOINT rMid2
										{
											OFFSET -3.599533 -1.323776 2.090647
											CHANNELS 3 Zrotation Xrotation Yrotation
											JOINT rMid3
											{
												OFFSET -1.360191 -1.598495 1.068055
												CHANNELS 3 Zrotation Xrotation Yrotation
												End Site
												{
													OFFSET -4.087769 -0.460876 0.069540
												}
											}
										}
									}
								}
								JOINT rCarpal2
								{
									OFFSET -1.942749 0.556229 -0.337217
									CHANNELS 3 Zrotation Xrotation Yrotation
									JOINT rRing1
									{
										OFFSET -4.762787 -0.121170 2.349089
										CHANNELS 3 Zrotation Xrotation Yrotation
										JOINT rRing2
										{
											OFFSET -3.380348 -1.337097 1.356700
											CHANNELS 3 Zrotation Xrotation Yrotation
											JOINT rRing3
											{
												OFFSET -1.430290 -1.499649 0.914224
												CHANNELS 3 Zrotation Xrotation Yrotation
												End Site
												{
													OFFSET -1.783272 -2.215851 -0.391895
												}
											}
										}
									}
									JOINT rPinky1
									{
										OFFSET -5.232559 -1.313721 0.336493
										CHANNELS 3 Zrotation Xrotation Yrotation
										JOINT rPinky2
										{
											OFFSET -2.217606 -1.389603 0.800693
											CHANNELS 3 Zrotation Xrotation Yrotation
											JOINT rPinky3
											{
												OFFSET -0.886887 -1.462280 0.774199
												CHANNELS 3 Zrotation Xrotation Yrotation
												End Site
												{
													OFFSET 14.139406 -2.625778 0.472826
												}
											}
										}
									}
								}
							}
						}
					}
				}
				JOINT lCollar
				{
					OFFSET 2.109295 21.452370 3.768136
					CHANNELS 3 Zrotation Xrotation Yrotation
					JOINT lShldr
					{
						OFFSET 11.491621 -2.568573 -4.940255
						CHANNELS 3 Zrotation Xrotation Yrotation
						JOINT lForeArm
						{
							OFFSET 28.789030 -0.213806 2.098380
							CHANNELS 3 Zrotation Xrotation Yrotation
							JOINT lHand
							{
								OFFSET 22.260895 -0.869583 10.391586
								CHANNELS 3 Zrotation Xrotation Yrotation
								JOINT lThumb1
								{
									OFFSET 0.628075 0.137405 2.362409
									CHANNELS 3 Zrotation Xrotation Yrotation
									JOINT lThumb2
									{
										OFFSET -0.085205 -0.600235 3.826079
										CHANNELS 3 Zrotation Xrotation Yrotation
										JOINT lThumb3
										{
											OFFSET 1.255478 -0.879211 2.439162
											CHANNELS 3 Zrotation Xrotation Yrotation
											End Site
											{
												OFFSET 2.963715 0.538574 4.059553
											}
										}
									}
								}
								JOINT lCarpal1
								{
									OFFSET 0.855530 1.026047 1.621985
									CHANNELS 3 Zrotation Xrotation Yrotation
									JOINT lIndex1
									{
										OFFSET 3.951324 0.390884 3.873290
										CHANNELS 3 Zrotation Xrotation Yrotation
										JOINT lIndex2
										{
											OFFSET 3.071884 -1.259598 2.506104
											CHANNELS 3 Zrotation Xrotation Yrotation
											JOINT lIndex3
											{
												OFFSET 1.394112 -1.446640 1.203302
												CHANNELS 3 Zrotation Xrotation Yrotation
												End Site
												{
													OFFSET 3.392448 -1.258026 0.533405
												}
											}
										}
									}
									JOINT lMid1
									{
										OFFSET 5.422974 0.107910 2.002650
										CHANNELS 3 Zrotation Xrotation Yrotation
										JOINT lMid2
										{
											OFFSET 3.599533 -1.323776 2.090647
											CHANNELS 3 Zrotation Xrotation Yrotation
											JOINT lMid3
											{
												OFFSET 1.360191 -1.598495 1.068055
												CHANNELS 3 Zrotation Xrotation Yrotation
												End Site
												{
													OFFSET 4.087769 -0.460876 0.069540
												}
											}
										}
									}
								}
								JOINT lCarpal2
								{
									OFFSET 1.942749 0.556229 -0.337217
									CHANNELS 3 Zrotation Xrotation Yrotation
									JOINT lRing1
									{
										OFFSET 4.762787 -0.121170 2.349089
										CHANNELS 3 Zrotation Xrotation Yrotation
										JOINT lRing2
										{
											OFFSET 3.380348 -1.337097 1.356700
											CHANNELS 3 Zrotation Xrotation Yrotation
											JOINT lRing3
											{
												OFFSET 1.430290 -1.499649 0.914224
												CHANNELS 3 Zrotation Xrotation Yrotation
												End Site
												{
													OFFSET 1.783272 -2.215851 -0.391895
												}
											}
										}
									}
									JOINT lPinky1
									{
										OFFSET 5.232559 -1.313721 0.336493
										CHANNELS 3 Zrotation Xrotation Yrotation
										JOINT lPinky2
										{
											OFFSET 2.217606 -1.389603 0.800693
											CHANNELS 3 Zrotation Xrotation Yrotation
											JOINT lPinky3
											{
												OFFSET 0.886887 -1.462280 0.774199
												CHANNELS 3 Zrotation Xrotation Yrotation
												End Site
												{
													OFFSET -10.295957 -17.050110 17.461308
												}
											}
										}
									}
								}
							}
						}
					}
				}
				JOINT rPectoral
				{
					OFFSET -6.358840 6.360771 6.369920
					CHANNELS 3 Zrotation Xrotation Yrotation
					End Site
					{
						OFFSET 10.295957 -17.050110 17.461308
					}
				}
				JOINT lPectoral
				{
					OFFSET 6.358840 6.360771 6.369920
					CHANNELS 3 Zrotation Xrotation Yrotation
					End Site
					{
						OFFSET 10.295957 -17.050110 17.461308
					}
				}
			}
		}
	}
}
MOTION
Frames:	4
Frame Time:	0.0333333
-13.325564 -1.590788 6.099879 -11.869056 5.217169 13.888136 0.000000 0.000000 0.000000 37.964211 -18.199535 16.524935 -10.859218 12.620975 35.165939 -5.312312 -4.646338 -7.529957 4.725204 -7.875459 1.648330 0.000000 0.000000 0.000000 7.648919 -11.368773 15.441970 6.391244 9.339062 13.191407 -8.007845 -23.587456 -9.724064 -4.082942 -4.607378 -2.270324 0.000000 0.000000 0.000000 4.482611 -13.353670 -2.447281 0.000000 0.000000 0.000000 10.437535 13.304457 -5.266793 7.740536 -20.615379 8.208589 -3.546965 9.926741 11.975535 0.000000 0.000000 0.000000 0.000000 0.000000 0.000000 0.000000 0.000000 0.000000 0.000000 0.000000 0.000000 0.000000 0.000000 0.000000 0.000000 0.000000 0.000000 0.000000 0.000000 0.000000 0.000000 0.000000 0.000000 0.000000 0.000000 0.000000 0.000000 0.000000 0.000000 0.000000 0.000000 0.000000 4.172898 -0.133007 -4.599360 14.466887 63.309231 14.125545 -4.768245 2.054078 65.508080 -15.775762 -12.213508 10.169416 -8.349857 -7.902685 18.787067 -1.529515 -15.159598 23.081085 7.548247 -0.421282 31.985743 0.000000 0.000000 0.000000 -27.336794 -15.268068 -19.938536 -6.301668 -3.453944 -1.683936 -6.173084 -3.725171 -1.190212 -21.389814 -8.987350 -10.265946 -4.539104 0.436358 -4.073637 -1.179852 3.354351 -2.357925 0.000000 0.000000 0.000000 -26.444305 -12.571822 -8.502390 0.390706 3.197772 -6.731636 -3.548783 6.070676 -4.222231 -43.164307 -22.572075 -23.791567 2.517021 6.522334 -6.941401 11.768294 14.030399 -3.279363 -10.775995 -1.553424 12.108897 -59.846813 22.761841 23.328318 50.255787 6.948256 -58.769283 -28.847912 13.263004 3.904588 15.319097 21.767633 8.847050 9.902845 -11.654306 7.277604 18.869974 24.455250 -9.597977 0.000000 0.000000 0.000000 11.364491 -8.970721 17.507416 7.667078 -6.424034 0.292635 7.630589 -5.952602 1.292660 9.629762 -3.672297 7.566721 1.653394 2.716326 3.955495 -3.546859 6.292817 1.431699 0.000000 0.000000 0.000000 5.460185 -6.644936 1.125281 -14.893649 10.525053 6.900545 -11.616734 10.919234 0.452295 20.891264 -24.279459 15.016637 -47.080284 22.724037 10.346928 -40.794155 22.743765 -2.182631 0.149181 -0.007452 -0.438053 -0.401233 -0.022644 1.178547 
-13.204935 -1.597257 6.141533 -11.790945 5.527788 13.654510 0.000000 0.000000 0.000000 37.955532 -18.560183 16.252846 -10.938462 13.015704 36.221684 -4.871511 -4.005857 -7.637623 4.726083 -7.849448 1.659170 0.000000 0.000000 0.000000 7.469645 -11.571827 15.607306 6.415308 9.341046 13.052541 -7.810452 -23.709417 -9.477619 -4.077944 -4.581350 -2.276772 0.000000 0.000000 0.000000 3.288508 -13.113802 -2.957729 0.000000 0.000000 0.000000 11.415306 13.088769 -5.798964 8.172827 -21.144888 6.588063 -4.534939 9.536786 10.472156 0.000000 0.000000 0.000000 0.000000 0.000000 0.000000 0.000000 0.000000 0.000000 0.000000 0.000000 0.000000 0.000000 0.000000 0.000000 0.000000 0.000000 0.000000 0.000000 0.000000 0.000000 0.000000 0.000000 0.000000 0.000000 0.000000 0.000000 0.000000 0.000000 0.000000 0.000000 0.000000 0.000000 4.185255 -0.134119 -4.608051 13.968938 62.829620 14.453197 -4.488658 1.880293 65.769867 -14.643833 -11.357553 10.253790 -8.454364 -7.906592 18.649994 -1.529515 -15.159598 23.081085 7.547941 -0.421342 31.984184 0.000000 0.000000 0.000000 -27.336447 -15.267960 -19.938936 -6.301667 -3.453742 -1.684346 -6.170673 -3.722662 -1.189954 -21.389830 -8.987349 -10.265947 -4.539416 0.436050 -4.073442 -1.179323 3.354751 -2.357865 0.000000 0.000000 0.000000 -26.443762 -12.571619 -8.502311 0.390489 3.197817 -6.731425 -3.548346 6.070880 -4.222196 -43.164169 -22.572195 -23.791264 2.518708 6.522850 -6.941258 11.769490 14.030549 -3.280252 -9.944662 -1.447989 11.871573 -59.325241 22.604935 24.260908 49.476139 3.041356 -61.116062 -22.991274 10.627602 3.274415 15.319116 21.767605 8.847051 9.902780 -11.654381 7.277607 18.869974 24.455250 -9.597977 0.000000 0.000000 0.000000 11.364478 -8.970724 17.507418 7.664299 -6.421558 0.292384 7.630908 -5.952847 1.292711 9.629825 -3.672379 7.566819 1.653112 2.716496 3.955631 -3.547076 6.293078 1.431749 0.000000 0.000000 0.000000 5.460176 -6.644933 1.125223 -14.893622 10.525061 6.900516 -11.616818 10.919305 0.452322 20.891253 -24.279505 15.016665 -47.080284 22.724037 10.346928 -40.794147 22.743734 -2.182624 0.149470 -0.007468 -0.438901 -0.391915 -0.022024 1.151165 
-13.115502 -1.614037 6.137170 -11.728912 5.889236 13.395244 0.000000 0.000000 0.000000 37.955090 -19.080793 16.127403 -10.717234 13.634214 36.740837 -4.738125 -3.260813 -7.673409 4.594653 -8.099030 1.698197 0.000000 0.000000 0.000000 7.327412 -11.864457 16.021200 6.538072 9.345057 13.098568 -7.900765 -23.870094 -9.556213 -4.067408 -4.526027 -2.290452 0.000000 0.000000 0.000000 1.366616 -12.435789 -3.986701 0.000000 0.000000 0.000000 13.217325 12.544601 -6.842758 8.691694 -22.636974 5.383084 -5.506076 10.046302 9.334173 0.000000 0.000000 0.000000 0.000000 0.000000 0.000000 0.000000 0.000000 0.000000 0.000000 0.000000 0.000000 0.000000 0.000000 0.000000 0.000000 0.000000 0.000000 0.000000 0.000000 0.000000 0.000000 0.000000 0.000000 0.000000 0.000000 0.000000 0.000000 0.000000 0.000000 0.000000 0.000000 0.000000 4.268397 -0.129976 -4.567356 11.949821 61.946934 16.040905 -4.722367 1.941862 65.893456 -12.787153 -9.999097 10.232507 -8.570964 -7.912154 18.494881 -1.529515 -15.159598 23.081085 7.547634 -0.421402 31.982615 0.000000 0.000000 0.000000 -27.336088 -15.267845 -19.939331 -6.301664 -3.453538 -1.684754 -6.168270 -3.720162 -1.189697 -21.389849 -8.987346 -10.265952 -4.539722 0.435748 -4.073249 -1.178794 3.355152 -2.357805 0.000000 0.000000 0.000000 -26.443222 -12.571419 -8.502235 0.390270 3.197863 -6.731215 -3.547908 6.071082 -4.222159 -43.164055 -22.572317 -23.790966 2.520387 6.523364 -6.941117 11.770676 14.030693 -3.281135 -8.965726 -1.311167 11.487404 -58.148216 20.684883 25.132252 47.935303 0.701279 -62.807320 -2.778051 1.596471 -5.041629 15.319131 21.767580 8.847058 9.902710 -11.654453 7.277607 18.869974 24.455250 -9.597977 0.000000 0.000000 0.000000 11.364462 -8.970728 17.507416 7.661447 -6.419014 0.292124 7.631214 -5.953080 1.292760 9.629896 -3.672468 7.566925 1.652838 2.716662 3.955767 -3.547288 6.293334 1.431800 0.000000 0.000000 0.000000 5.460172 -6.644932 1.125176 -14.893593 10.525070 6.900488 -11.616897 10.919372 0.452350 20.891241 -24.279547 15.016692 -47.080284 22.724037 10.346928 -40.794155 22.743711 -2.182621 0.148205 -0.007400 -0.435186 -0.377730 -0.021089 1.109477 
-13.039909 -1.647622 6.124657 -11.744456 6.407168 13.417885 0.000000 0.000000 0.000000 38.182793 -20.020821 15.658376 -10.929106 14.322363 36.770817 -4.166653 -2.908705 -7.810352 4.094541 -9.102235 1.831370 0.000000 0.000000 0.000000 7.185527 -12.541770 16.112198 6.702423 9.658072 13.452677 -8.017200 -24.157972 -9.934106 -4.056761 -4.468876 -2.304503 0.000000 0.000000 0.000000 -0.178216 -12.057656 -5.035524 0.000000 0.000000 0.000000 14.358595 12.058870 -7.729471 10.690884 -22.802896 4.976151 -7.336205 9.430846 9.738385 0.000000 0.000000 0.000000 0.000000 0.000000 0.000000 0.000000 0.000000 0.000000 0.000000 0.000000 0.000000 0.000000 0.000000 0.000000 0.000000 0.000000 0.000000 0.000000 0.000000 0.000000 0.000000 0.000000 0.000000 0.000000 0.000000 0.000000 0.000000 0.000000 0.000000 0.000000 0.000000 0.000000 4.475217 -0.128434 -4.538975 10.328572 61.140133 17.448507 -4.561569 1.976784 66.031761 -11.903827 -9.148845 11.188058 -8.699074 -7.919930 18.323038 -1.529515 -15.159598 23.081085 7.547313 -0.421466 31.980986 0.000000 0.000000 0.000000 -27.335730 -15.267734 -19.939743 -6.301660 -3.453327 -1.685174 -6.165802 -3.717594 -1.189434 -21.389864 -8.987342 -10.265955 -4.540030 0.435442 -4.073047 -1.178250 3.355565 -2.357743 0.000000 0.000000 0.000000 -26.442667 -12.571212 -8.502155 0.390041 3.197912 -6.730997 -3.547458 6.071290 -4.222122 -43.163933 -22.572441 -23.790667 2.522108 6.523886 -6.940973 11.771894 14.030842 -3.282037 -8.296347 -1.196646 11.067877 -56.616894 17.681307 25.223202 41.414909 0.651873 -64.391464 20.359360 -12.071527 -8.679781 15.319152 21.767553 8.847061 9.902635 -11.654531 7.277607 18.869974 24.455250 -9.597977 0.000000 0.000000 0.000000 11.364445 -8.970732 17.507416 7.658424 -6.416322 0.291844 7.631516 -5.953310 1.292808 9.629973 -3.672567 7.567037 1.652564 2.716826 3.955907 -3.547499 6.293588 1.431853 0.000000 0.000000 0.000000 5.460166 -6.644931 1.125138 -14.893566 10.525080 6.900463 -11.616979 10.919439 0.452376 20.891232 -24.279585 15.016714 -47.080284 22.724037 10.346928 -40.794159 22.743679 -2.182621 0.147421 -0.007358 -0.432885 -0.363062 -0.020133 1.066373 
